<svg width="24" height="24" viewBox="0 0 24 24" fill="none" xmlns="http://www.w3.org/2000/svg">
<path d="M22 22.75C22.4142 22.75 22.75 22.4142 22.75 22C22.75 21.5858 22.4142 21.25 22 21.25V22V22.75ZM2 21.25C1.58579 21.25 1.25 21.5858 1.25 22C1.25 22.4142 1.58579 22.75 2 22.75V22V21.25ZM16.4142 2.58579L15.8839 3.11612L15.8839 3.11612L16.4142 2.58579ZM20.1111 8.33706L19.6945 8.96066V8.96066L20.1111 8.33706ZM20.25 11.5C20.25 11.9142 20.5858 12.25 21 12.25C21.4142 12.25 21.75 11.9142 21.75 11.5H21H20.25ZM20.6629 8.88886L20.0393 9.30554V9.30554L20.6629 8.88886ZM21.75 15.5C21.75 15.0858 21.4142 14.75 21 14.75C20.5858 14.75 20.25 15.0858 20.25 15.5H21H21.75ZM3.88886 8.33706L4.30554 8.96066H4.30554L3.88886 8.33706ZM3.33706 8.88886L3.96066 9.30554L3.96066 9.30554L3.33706 8.88886ZM3.75 20C3.75 19.5858 3.41421 19.25 3 19.25C2.58579 19.25 2.25 19.5858 2.25 20H3H3.75ZM2.25 16C2.25 16.4142 2.58579 16.75 3 16.75C3.41421 16.75 3.75 16.4142 3.75 16H3H2.25ZM11.25 22C11.25 22.4142 11.5858 22.75 12 22.75C12.4142 22.75 12.75 22.4142 12.75 22H12H11.25ZM12.75 19C12.75 18.5858 12.4142 18.25 12 18.25C11.5858 18.25 11.25 18.5858 11.25 19H12H12.75ZM10 4.25C9.58579 4.25 9.25 4.58579 9.25 5C9.25 5.41421 9.58579 5.75 10 5.75V5V4.25ZM14 5.75C14.4142 5.75 14.75 5.41421 14.75 5C14.75 4.58579 14.4142 4.25 14 4.25V5V5.75ZM10 13.25C9.58579 13.25 9.25 13.5858 9.25 14C9.25 14.4142 9.58579 14.75 10 14.75V14V13.25ZM10.5 14.75C10.9142 14.75 11.25 14.4142 11.25 14C11.25 13.5858 10.9142 13.25 10.5 13.25V14V14.75ZM12.5 13.25C12.0858 13.25 11.75 13.5858 11.75 14C11.75 14.4142 12.0858 14.75 12.5 14.75V14V13.25ZM14 14.75C14.4142 14.75 14.75 14.4142 14.75 14C14.75 13.5858 14.4142 13.25 14 13.25V14V14.75ZM14 8.75C14.4142 8.75 14.75 8.41421 14.75 8C14.75 7.58579 14.4142 7.25 14 7.25V8V8.75ZM13.5 7.25C13.0858 7.25 12.75 7.58579 12.75 8C12.75 8.41421 13.0858 8.75 13.5 8.75V8V7.25ZM11.5 8.75C11.9142 8.75 12.25 8.41421 12.25 8C12.25 7.58579 11.9142 7.25 11.5 7.25V8V8.75ZM10 7.25C9.58579 7.25 9.25 7.58579 9.25 8C9.25 8.41421 9.58579 8.75 10 8.75V8V7.25ZM10 10.25C9.58579 10.25 9.25 10.5858 9.25 11C9.25 11.4142 9.58579 11.75 10 11.75V11V10.25ZM14 11.75C14.4142 11.75 14.75 11.4142 14.75 11C14.75 10.5858 14.4142 10.25 14 10.25V11V11.75ZM22 22V21.25H2V22V22.75H22V22ZM11 2V2.75H13V2V1.25H11V2ZM17 6H16.25V22H17H17.75V6H17ZM7 22H7.75V6H7H6.25V22H7ZM13 2V2.75C13.964 2.75 14.6116 2.75159 15.0946 2.81654C15.5561 2.87858 15.7536 2.9858 15.8839 3.11612L16.4142 2.58579L16.9445 2.05546C16.4891 1.59999 15.9223 1.41432 15.2945 1.32991C14.6883 1.24841 13.9216 1.25 13 1.25V2ZM17 6H17.75C17.75 5.07839 17.7516 4.31174 17.6701 3.70552C17.5857 3.07773 17.4 2.51093 16.9445 2.05546L16.4142 2.58579L15.8839 3.11612C16.0142 3.24643 16.1214 3.44393 16.1835 3.90539C16.2484 4.38843 16.25 5.03599 16.25 6H17ZM11 2V1.25C10.0784 1.25 9.31174 1.24841 8.70552 1.32991C8.07773 1.41432 7.51093 1.59999 7.05546 2.05546L7.58579 2.58579L8.11612 3.11612C8.24643 2.9858 8.44393 2.87858 8.90539 2.81654C9.38843 2.75159 10.036 2.75 11 2.75V2ZM7 6H7.75C7.75 5.03599 7.75159 4.38843 7.81654 3.90539C7.87858 3.44393 7.9858 3.24643 8.11612 3.11612L7.58579 2.58579L7.05546 2.05546C6.59999 2.51093 6.41432 3.07773 6.32991 3.70552C6.24841 4.31174 6.25 5.07839 6.25 6H7ZM17.5 8V8.75C18.2178 8.75 18.6998 8.75091 19.0672 8.78828C19.422 8.82438 19.586 8.8882 19.6945 8.96066L20.1111 8.33706L20.5278 7.71346C20.1318 7.44886 19.6925 7.34415 19.219 7.29598C18.758 7.24909 18.1866 7.25 17.5 7.25V8ZM21 11.5H21.75C21.75 10.8134 21.7509 10.242 21.704 9.78102C21.6559 9.30755 21.5511 8.86818 21.2865 8.47218L20.6629 8.88886L20.0393 9.30554C20.1118 9.41399 20.1756 9.57796 20.2117 9.93283C20.2491 10.3002 20.25 10.7822 20.25 11.5H21ZM20.1111 8.33706L19.6945 8.96066C19.8309 9.05186 19.9481 9.16905 20.0393 9.30554L20.6629 8.88886L21.2865 8.47218C21.0859 8.17191 20.8281 7.9141 20.5278 7.71346L20.1111 8.33706ZM21 15.5H20.25V22H21H21.75V15.5H21ZM6.5 8V7.25C5.81338 7.25 5.24196 7.24909 4.78102 7.29598C4.30755 7.34415 3.86818 7.44886 3.47218 7.71346L3.88886 8.33706L4.30554 8.96066C4.41399 8.8882 4.57796 8.82438 4.93283 8.78828C5.30023 8.75091 5.78216 8.75 6.5 8.75V8ZM3 11.5H3.75C3.75 10.7822 3.75091 10.3002 3.78828 9.93283C3.82438 9.57796 3.8882 9.41399 3.96066 9.30554L3.33706 8.88886L2.71346 8.47218C2.44886 8.86818 2.34415 9.30755 2.29598 9.78102C2.24909 10.242 2.25 10.8134 2.25 11.5H3ZM3.88886 8.33706L3.47218 7.71346C3.17191 7.91409 2.91409 8.17191 2.71346 8.47218L3.33706 8.88886L3.96066 9.30554C4.05186 9.16905 4.16905 9.05186 4.30554 8.96066L3.88886 8.33706ZM3 20H2.25V22H3H3.75V20H3ZM3 11.5H2.25V16H3H3.75V11.5H3ZM12 22H12.75V19H12H11.25V22H12ZM10 5V5.75H14V5V4.25H10V5ZM10 14V14.75H10.5V14V13.25H10V14ZM12.5 14V14.75H14V14V13.25H12.5V14ZM14 8V7.25H13.5V8V8.75H14V8ZM11.5 8V7.25H10V8V8.75H11.5V8ZM10 11V11.75H14V11V10.25H10V11Z" fill="black"/>
</svg>
